# xmcd
#
# Track frame offsets: 
#        150
#        11766
#        24024
#        36490
#        49596
#        61850
#        75981
#        89697
#        103765
#        114223
#
# Disc length: 1669 seconds
#
# Revision: 2
# Processed by: cddbd v1.5.2PL0 Copyright (c) Steve Scherf et al.
# Submitted via: ExactAudioCopyFreeDBPlugin 1.0
#
DISCID=6e06830a
DTITLE=Merle Haggard - Hurtin'
DYEAR=2001
DGENRE=Country
TTITLE0=Sing A Sad Song
TTITLE1=Silver Wings
TTITLE2=House Of Memories
TTITLE3=Everybodys Had The Blues
TTITLE4=Things Aren't Funny Anymore
TTITLE5=What Have You Got Planned Tonight Diana
TTITLE6=Making Believe
TTITLE7=Always Wanting You
TTITLE8=You Don't Have Far To Go
TTITLE9=Every Fool Has A Rainbow
EXTD=Capitol 7243-5-34454-2-3
EXTT0=
EXTT1=
EXTT2=
EXTT3=
EXTT4=
EXTT5=
EXTT6=
EXTT7=
EXTT8=
EXTT9=
PLAYORDER=
